<svg width="188" height="41" viewBox="0 0 188 41" fill="none" xmlns="http://www.w3.org/2000/svg">
<path d="M75.392 23.6019L72.1213 14.7625C71.9878 14.401 71.4778 14.401 71.344 14.7625L68.0739 23.6025C68.0506 23.6653 68.0429 23.7328 68.0512 23.7993C68.0597 23.8658 68.0841 23.9292 68.1222 23.9842C68.1605 24.0392 68.2113 24.0841 68.2707 24.1151C68.3298 24.1462 68.3957 24.1623 68.4627 24.1623H75.0032C75.0699 24.1623 75.1358 24.1461 75.1952 24.1151C75.2542 24.084 75.3051 24.0391 75.3434 23.984C75.3815 23.929 75.4059 23.8656 75.4141 23.799C75.4226 23.7326 75.415 23.665 75.3917 23.6022L75.392 23.6019ZM76.9028 28.5705H66.5631C66.4785 28.5705 66.3961 28.5964 66.3265 28.6448C66.2572 28.6932 66.2041 28.7618 66.1746 28.8413L64.139 34.3415C64.1097 34.421 64.0566 34.4896 63.9873 34.538C63.9177 34.5864 63.8351 34.6123 63.7505 34.6123H59.2691C59.2013 34.6123 59.1345 34.5958 59.0749 34.5639C59.015 34.532 58.9639 34.4859 58.9258 34.4295C58.888 34.3734 58.8642 34.3085 58.8571 34.241C58.85 34.1736 58.8593 34.1052 58.8843 34.0423L69.2022 8.27262C69.2331 8.19563 69.2862 8.12971 69.355 8.0833C69.4234 8.03689 69.5043 8.01212 69.5873 8.01221H73.8783C74.0473 8.01221 74.1995 8.11525 74.2628 8.27262L84.5804 34.042C84.6057 34.1049 84.6153 34.1733 84.608 34.241C84.6009 34.3085 84.5773 34.3734 84.5392 34.4298C84.5015 34.4862 84.4501 34.5323 84.3901 34.5642C84.3305 34.5961 84.2635 34.6126 84.1959 34.6126H79.7151C79.6305 34.6126 79.5479 34.5867 79.4783 34.538C79.409 34.4896 79.3559 34.421 79.3266 34.3415L77.2907 28.8413C77.2612 28.7618 77.2084 28.6932 77.1388 28.6448C77.0695 28.5964 76.9869 28.5705 76.9022 28.5705H76.9028ZM86.6802 17.056H90.5132C90.6231 17.056 90.7285 17.0998 90.8063 17.1777C90.8838 17.2557 90.9275 17.3614 90.9275 17.4716V34.1969C90.9275 34.3071 90.8838 34.4127 90.8063 34.4907C90.7285 34.5685 90.6231 34.6123 90.5132 34.6123H86.6802C86.5703 34.6123 86.4647 34.5685 86.3871 34.4907C86.3093 34.4127 86.2656 34.3071 86.2656 34.1969V17.4713C86.2656 17.3611 86.3093 17.2554 86.3871 17.1775C86.4647 17.0996 86.5703 17.0558 86.6802 17.0558V17.056ZM104.907 21.1244C104.907 21.2347 104.863 21.3403 104.785 21.4183C104.708 21.4962 104.602 21.54 104.492 21.54H104.376C102.481 21.54 101.091 21.996 100.207 22.9079C99.3219 23.8199 98.8803 25.3275 98.8803 27.4302V34.1969C98.8803 34.3071 98.8366 34.4127 98.7591 34.4907C98.6813 34.5685 98.5759 34.6123 98.466 34.6123H94.6705C94.5606 34.6123 94.4552 34.5685 94.3774 34.4907C94.2996 34.4127 94.2562 34.3071 94.2562 34.1969V17.4713C94.2562 17.3611 94.2996 17.2554 94.3774 17.1775C94.4552 17.0996 94.5606 17.0558 94.6705 17.0558H98.4279C98.5378 17.0558 98.6432 17.0996 98.721 17.1775C98.7985 17.2554 98.8423 17.3611 98.8423 17.4713V20.7796H98.9184C99.3731 19.4116 100.093 18.3608 101.079 17.6256C102.064 16.8912 103.277 16.5236 104.717 16.5236H104.907V21.1242V21.1244ZM115.387 20.9699C115.278 20.9699 115.172 21.0137 115.094 21.0916C115.017 21.1695 114.973 21.2752 114.973 21.3854V28.3421C114.973 29.0517 115.111 29.5582 115.389 29.8623C115.667 30.1661 116.147 30.3181 116.83 30.3181H117.211C117.321 30.3181 117.427 30.362 117.504 30.44C117.582 30.5177 117.626 30.6234 117.626 30.7338V34.2345C117.626 34.3447 117.582 34.4503 117.504 34.5283C117.427 34.6063 117.321 34.6499 117.211 34.6499H115.579C113.886 34.6499 112.585 34.2131 111.675 33.339C110.765 32.4652 110.31 31.1672 110.31 29.444V21.3854C110.31 21.2752 110.267 21.1695 110.189 21.0916C110.111 21.0137 110.006 20.9699 109.896 20.9699H107.503C107.393 20.9699 107.288 20.9261 107.21 20.8482C107.132 20.7702 107.089 20.6645 107.089 20.5543V17.4713C107.089 17.3611 107.132 17.2554 107.21 17.1775C107.288 17.0996 107.393 17.0558 107.503 17.0558H109.896C110.006 17.0558 110.111 17.012 110.189 16.934C110.267 16.8561 110.311 16.7504 110.311 16.6402V10.4412C110.311 10.331 110.354 10.2253 110.432 10.1473C110.51 10.0694 110.615 10.0257 110.725 10.0257H114.558C114.668 10.0257 114.773 10.0694 114.851 10.1473C114.929 10.2253 114.973 10.331 114.973 10.4412V16.6402C114.973 16.7504 115.016 16.8561 115.094 16.934C115.172 17.012 115.277 17.0558 115.387 17.0558H118.159C118.269 17.0558 118.374 17.0996 118.452 17.1775C118.529 17.2554 118.573 17.3611 118.573 17.4713V20.5546C118.573 20.6648 118.529 20.7705 118.452 20.8484C118.374 20.9264 118.269 20.9702 118.159 20.9702H115.387V20.9699ZM132.939 29.4062C133.811 28.4942 134.246 27.3035 134.246 25.8339C134.246 24.3651 133.811 23.1739 132.939 22.2619C132.067 21.3499 130.924 20.894 129.508 20.894C128.093 20.894 126.951 21.3499 126.078 22.2619C125.207 23.1739 124.771 24.3651 124.771 25.8339C124.771 27.3035 125.207 28.4942 126.078 29.4062C126.951 30.3181 128.093 30.7743 129.508 30.7743C130.924 30.7743 132.067 30.3181 132.939 29.4062ZM124.089 34.0802C122.8 33.3459 121.783 32.275 121.038 30.8691C120.292 29.4631 119.919 27.785 119.919 25.8339C119.919 23.8836 120.292 22.2048 121.038 20.7989C121.783 19.393 122.8 18.3231 124.089 17.5879C125.378 16.8532 126.792 16.4859 128.334 16.4859C129.698 16.4859 130.867 16.7518 131.84 17.2837C132.812 17.8157 133.589 18.5633 134.171 19.526H134.246V17.4713C134.246 17.3611 134.29 17.2554 134.368 17.1775C134.446 17.0996 134.551 17.0558 134.661 17.0558H138.456C138.566 17.0558 138.672 17.0996 138.749 17.1775C138.827 17.2554 138.871 17.3611 138.871 17.4713V34.1966C138.871 34.3068 138.827 34.4124 138.749 34.4904C138.672 34.5682 138.566 34.612 138.456 34.612H134.661C134.551 34.612 134.446 34.5682 134.368 34.4904C134.29 34.4124 134.246 34.3068 134.246 34.1966V32.1421H134.171C133.589 33.1053 132.812 33.8521 131.84 34.384C130.867 34.9161 129.698 35.182 128.334 35.182C126.792 35.182 125.378 34.8145 124.089 34.0802ZM154.654 29.4062C155.526 28.4942 155.962 27.3035 155.962 25.8339C155.962 24.3651 155.526 23.1739 154.654 22.2619C153.783 21.3499 152.639 20.894 151.224 20.894C149.809 20.894 148.666 21.3499 147.794 22.2619C146.923 23.1739 146.486 24.3651 146.486 25.8339C146.486 27.3035 146.923 28.4942 147.794 29.4062C148.666 30.3181 149.809 30.7743 151.224 30.7743C152.639 30.7743 153.783 30.3181 154.654 29.4062ZM148.893 34.384C147.92 33.8521 147.143 33.1053 146.562 32.1421H146.486V34.1966C146.486 34.3068 146.443 34.4124 146.365 34.4904C146.287 34.5682 146.182 34.612 146.072 34.612H142.239C142.129 34.612 142.023 34.5682 141.946 34.4904C141.868 34.4124 141.824 34.3068 141.824 34.1966V8.42691C141.824 8.31672 141.868 8.211 141.946 8.13307C142.023 8.05515 142.129 8.01138 142.239 8.01138H146.072C146.182 8.01138 146.287 8.05515 146.365 8.13307C146.443 8.211 146.486 8.31672 146.486 8.42691V19.5257H146.562C147.143 18.5631 147.92 17.8157 148.893 17.2837C149.866 16.7516 151.035 16.4856 152.399 16.4856C153.94 16.4856 155.356 16.853 156.644 17.5876C157.933 18.3229 158.95 19.3928 159.695 20.7984C160.441 22.2051 160.814 23.8839 160.814 25.8342C160.814 27.7853 160.441 29.4631 159.696 30.8694C158.95 32.2753 157.933 33.3461 156.645 34.0802C155.356 34.8147 153.941 35.1826 152.4 35.1826C151.035 35.1826 149.866 34.9164 148.893 34.3842L148.893 34.384ZM167.272 34.6123H163.439C163.329 34.6123 163.223 34.5685 163.146 34.4907C163.068 34.4127 163.024 34.3071 163.024 34.1969V8.42773C163.024 8.31755 163.068 8.21186 163.146 8.13393C163.223 8.05597 163.329 8.01221 163.439 8.01221H167.272C167.382 8.01221 167.487 8.05597 167.565 8.13393C167.643 8.21186 167.686 8.31755 167.686 8.42773V34.1969C167.686 34.3071 167.643 34.4127 167.565 34.4907C167.487 34.5685 167.382 34.6123 167.272 34.6123ZM176.313 21.1223C175.678 21.6192 175.249 22.3367 175.027 23.2753C174.966 23.534 175.167 23.7822 175.432 23.7822H182.727C182.98 23.7822 183.179 23.5551 183.138 23.3046C182.992 22.4168 182.612 21.709 181.999 21.1793C181.279 20.5588 180.337 20.2485 179.175 20.2485C178.012 20.2485 177.058 20.5397 176.313 21.1223ZM185.656 18.937C187.147 20.5715 187.893 22.8833 187.893 25.8722V26.3686C187.893 26.4788 187.849 26.5845 187.771 26.6624C187.694 26.7403 187.588 26.7841 187.478 26.7841H175.292C175.231 26.7842 175.171 26.7976 175.116 26.8234C175.061 26.8492 175.012 26.8866 174.973 26.9332C174.934 26.9798 174.906 27.0344 174.89 27.0931C174.874 27.1518 174.871 27.2134 174.881 27.2733C175.076 28.3837 175.566 29.2658 176.351 29.9192C177.248 30.6672 178.379 31.0405 179.744 31.0405C181.505 31.0405 183.136 30.3512 184.635 28.9722C184.818 28.804 185.108 28.8396 185.25 29.0443L187.114 31.7261C187.172 31.8095 187.198 31.9114 187.186 32.0128C187.175 32.1139 187.126 32.2073 187.05 32.275C186.136 33.0777 185.119 33.755 184.026 34.2894C182.813 34.8845 181.386 35.1826 179.744 35.1826C177.849 35.1826 176.193 34.7957 174.778 34.0235C173.363 33.2511 172.264 32.1617 171.481 30.7552C170.697 29.3495 170.306 27.7219 170.306 25.8722C170.306 24.0233 170.685 22.3893 171.443 20.9702C172.201 19.5518 173.262 18.4498 174.627 17.6641C175.991 16.8793 177.583 16.4862 179.403 16.4862C182.08 16.4862 184.165 17.3034 185.656 18.937ZM91.4282 10.8728C91.4282 12.4402 90.1608 13.7109 88.5971 13.7109C87.0332 13.7109 85.7658 12.4402 85.7658 10.8725C85.7658 9.30482 87.0335 8.0341 88.5971 8.0341C90.1608 8.0341 91.4282 9.30482 91.4282 10.8725" fill="#E9E9E9"/>
<path d="M21.8287 0.517208L3.60315 8.0781C2.58964 8.49864 2.60014 9.94223 3.62002 10.3475L21.9216 17.6239C23.5296 18.2633 25.3204 18.2633 26.9283 17.6239L45.2302 10.3472C46.2497 9.94223 46.2608 8.49892 45.2466 8.07839L27.0218 0.516932C25.359 -0.17288 23.4912 -0.17288 21.8284 0.516932" fill="#E9E9E9"/>
<path d="M26.0488 21.5968V39.7746C26.0488 40.6387 26.9183 41.231 27.7199 40.9126L48.1135 32.9763C48.341 32.8858 48.5361 32.7292 48.6736 32.5261C48.811 32.3231 48.8843 32.0834 48.8843 31.8383V13.6608C48.8843 12.7962 48.0147 12.2042 47.2133 12.5227L26.8197 20.459C26.5923 20.5495 26.3972 20.7063 26.2597 20.9092C26.1223 21.1122 26.0488 21.3518 26.0488 21.597" fill="#E9E9E9"/>
<path d="M21.2866 22.5348L15.2342 25.4646L14.6197 25.7625L1.84356 31.9C1.03396 32.2918 0 31.6999 0 30.7979V13.737C0 13.4106 0.166893 13.1289 0.390705 12.917C0.482524 12.8253 0.586693 12.747 0.700175 12.6843C1.00523 12.5006 1.44069 12.4516 1.81095 12.5984L21.1849 20.2948C22.1697 20.6865 22.247 22.07 21.2866 22.5351" fill="#E9E9E9"/>
<path d="M21.2865 22.5348L15.2342 25.4646L0.390694 12.9167C0.48253 12.8251 0.586696 12.7469 0.700164 12.6843C1.00521 12.5006 1.44068 12.4516 1.81094 12.5984L21.1849 20.2948C22.1697 20.6865 22.247 22.07 21.2865 22.5351" fill="white" fill-opacity="0.25"/>
</svg>
