<svg width="234" height="37" viewBox="0 0 234 37" fill="none" xmlns="http://www.w3.org/2000/svg">
<path d="M30.2366 22.3782L18.4478 1.52442C17.938 0.616895 17.5086 1.56508e-07 16.2341 1.56508e-07H0.5C0.5 -0.0027416 20.8055 36.0185 20.8055 36.0185C21.1297 36.6051 21.7586 37 22.4817 37C23.2049 37 23.8337 36.5997 24.1607 36.0185L30.3335 25.0898C30.9459 24.0507 30.7658 23.3049 30.2366 22.3782Z" fill="#E9E9E9"/>
<path d="M53.67 22.3782L41.884 1.52442C41.3714 0.616895 40.9448 1.56508e-07 39.6702 1.56508e-07H23.9334C23.9334 -0.0027416 44.2389 36.0185 44.2389 36.0185C44.563 36.6051 45.192 37 45.9152 37C46.6384 37 47.2672 36.5997 47.594 36.0185L53.7695 25.0871C54.3793 24.0507 54.1993 23.3049 53.67 22.3782Z" fill="#E9E9E9"/>
<path d="M44.1337 0C46.1533 3.40801 52.049 4.24698 54.0162 7.56999C55.9751 10.8793 53.587 16.9578 55.6122 20.3767L67.0711 0H44.1337Z" fill="#E9E9E9"/>
<path d="M54.0187 7.56999C55.9776 10.8793 53.5892 16.9578 55.6145 20.3767L67.0708 0L54.0187 7.56999Z" fill="#E9E9E9"/>
<path d="M106.862 8.98221L100.867 28.1609C100.778 28.479 100.545 28.6216 100.254 28.6216H98.1599C97.8691 28.6216 97.6638 28.479 97.578 28.1881L93.0676 14.4246L88.6735 28.1881C88.5876 28.4761 88.3827 28.6216 88.0916 28.6216H85.9665C85.6757 28.6216 85.4429 28.479 85.3848 28.1609L79.3893 8.98221C79.3006 8.60658 79.4752 8.37628 79.8548 8.37628H82.9689C83.2901 8.37628 83.4925 8.54903 83.5812 8.83691L85.4151 15.7489L87.1608 23.0063L89.2859 15.8942L91.613 8.80949C91.6989 8.49144 91.9345 8.37628 92.2254 8.37628H93.9708C94.2617 8.37628 94.4944 8.49144 94.5832 8.80949L96.9409 15.8942L99.1822 22.9213L101.133 15.6365L102.936 8.83963C103.022 8.55175 103.2 8.37903 103.518 8.37903H106.4C106.774 8.37903 106.979 8.60933 106.862 8.98221Z" fill="#E9E9E9"/>
<path d="M127.229 25.6583V28.1069C127.229 28.4247 127.024 28.6249 126.706 28.6249H113.67C113.321 28.6249 113.116 28.4219 113.116 28.1069V8.89799C113.116 8.57994 113.321 8.37981 113.67 8.37981H126.589C126.938 8.37981 127.143 8.58269 127.143 8.89799V11.3464C127.143 11.6918 126.938 11.8947 126.589 11.8947H117.133V16.6434H125.398C125.747 16.6434 125.952 16.8463 125.952 17.1918V19.6402C125.952 19.9582 125.747 20.1583 125.398 20.1583H117.133V25.1401H126.706C127.027 25.1401 127.229 25.3128 127.229 25.6583Z" fill="#E9E9E9"/>
<path d="M133.449 27.6002C133.186 27.3975 133.127 27.0819 133.305 26.7641L134.701 24.5761C134.848 24.2882 135.139 24.2306 135.43 24.4308C137.147 25.6701 139.037 26.2458 141.018 26.2458C142.852 26.2458 144.218 25.4671 144.218 23.8276C144.218 22.2154 143.054 21.4943 139.998 20.6608C136.535 19.7094 133.828 18.3852 133.828 14.8429C133.828 11.2731 136.796 8.93987 141.19 8.93987C143.924 8.93987 146.08 9.63079 147.62 10.6973C147.911 10.9002 147.911 11.1881 147.736 11.4458L146.484 13.4912C146.31 13.8092 145.988 13.8668 145.697 13.6639C144.417 12.8578 142.991 12.3972 141.156 12.3972C139.295 12.3972 137.898 13.0881 137.898 14.5851C137.898 16.0547 139.236 16.5154 142.06 17.3488C145.523 18.3578 148.199 19.6821 148.199 23.5698C148.199 27.3425 145.318 29.703 140.954 29.703C137.785 29.703 135.341 28.9245 133.449 27.6002Z" fill="#E9E9E9"/>
<path d="M170.303 8.89721V11.3456C170.303 11.6911 170.098 11.894 169.749 11.894H163.521V28.1059C163.521 28.424 163.316 28.6241 162.967 28.6241H160.027C159.678 28.6241 159.504 28.4214 159.504 28.1059V11.8912H153.217C152.868 11.8912 152.694 11.6883 152.694 11.3429V8.89449C152.694 8.57644 152.868 8.37628 153.217 8.37628H169.746C170.098 8.37903 170.303 8.57916 170.303 8.89721Z" fill="#E9E9E9"/>
<path d="M173.123 19.3366C173.123 13.461 177.459 8.93987 184.006 8.93987C187.148 8.93987 189.245 9.91867 190.351 10.6096C190.642 10.7823 190.672 11.0702 190.525 11.3581L189.273 13.5762C189.099 13.8942 188.835 13.9518 188.545 13.7489C187.758 13.3157 186.333 12.6549 184.239 12.6549C180.019 12.6549 177.254 15.2761 177.254 19.3065C177.254 23.3369 179.989 25.9881 184.239 25.9881C186.333 25.9881 187.76 25.3547 188.545 24.9216C188.835 24.7488 189.099 24.8064 189.273 25.0942L190.525 27.3124C190.672 27.6002 190.672 27.8607 190.293 28.091C189.42 28.6668 187.325 29.703 184.006 29.703C177.432 29.703 173.123 25.182 173.123 19.3366Z" fill="#E9E9E9"/>
<path d="M212.945 28.6216H209.831C209.54 28.6216 209.335 28.479 209.218 28.1881L207.764 24.7035H199.006L197.551 28.1881C197.435 28.4761 197.23 28.6216 196.939 28.6216H193.825C193.418 28.6216 193.243 28.3911 193.387 28.0154L201.912 8.77932C202.001 8.51886 202.262 8.37628 202.552 8.37628H204.298C204.589 8.37628 204.821 8.52161 204.938 8.77932L213.377 28.0154C213.527 28.3911 213.352 28.6216 212.945 28.6216ZM200.286 21.3365H206.484L203.4 14.0216L200.286 21.3365Z" fill="#E9E9E9"/>
<path d="M233.397 15.6948C233.397 20.0706 229.934 22.7795 224.872 22.8069H221.847V28.1069C221.847 28.4247 221.642 28.6249 221.323 28.6249H218.383C218.034 28.6249 217.83 28.4219 217.83 28.1069V8.89799C217.83 8.57994 218.034 8.37981 218.383 8.37981H225.047C229.995 8.37981 233.397 11.2312 233.397 15.6948ZM229.266 15.6372C229.266 13.5919 227.637 11.8947 224.844 11.8947H221.847V19.2673H224.844C227.696 19.2646 229.266 17.6223 229.266 15.6372Z" fill="#E9E9E9"/>
</svg>
