<svg width="196" height="40" viewBox="0 0 196 40" fill="none" xmlns="http://www.w3.org/2000/svg">
<path d="M49.328 39.103V35.125H49.25C47.4219 38.1767 44.1703 39.7563 40.475 39.7563C32.9431 39.7563 26.825 34.0866 26.825 26.6523C26.825 18.4281 32.7335 12.661 40.3044 12.661C44.0679 12.661 47.2318 14.0553 49.2305 16.9852H49.3231V13.3582H54.1543V39.103H49.328ZM49.4207 26.2769C49.4207 21.2605 45.7936 17.0875 40.4458 17.0875C35.6146 17.0875 31.6708 21.2264 31.6708 26.2866C31.6708 31.1226 35.6244 35.3541 40.4458 35.3541C42.837 35.3322 45.1225 34.3656 46.8039 32.6653C48.4852 30.9647 49.4258 28.6683 49.4207 26.2769Z" fill="#E9E9E9"/>
<path d="M76.1551 39.103V25.0728C76.1551 19.6323 74.0199 17.0778 69.7396 17.0778C65.4594 17.0778 62.9536 20.1929 62.9536 25.0289V39.1127H58.1176V13.3581H62.627V16.1125H62.7196C64.6209 13.675 67.2778 12.7 70.2515 12.7C76.433 12.7 80.9765 16.6 80.9765 23.7175V39.1127H76.1503L76.1551 39.103Z" fill="#E9E9E9"/>
<path d="M146.809 39.103V35.125H146.721C144.907 38.1914 141.651 39.7709 137.98 39.7709C130.448 39.7709 124.33 34.1013 124.33 26.6669C124.33 18.4428 130.229 12.6757 137.809 12.6757C141.573 12.6757 144.737 14.0699 146.735 16.9998H146.823V13.3582H151.625V39.103H146.809ZM146.901 26.2769C146.901 21.2605 143.274 17.0778 137.931 17.0778C133.095 17.0778 129.156 21.2167 129.156 26.2769C129.156 31.1129 133.11 35.3444 137.931 35.3444C140.32 35.3225 142.604 34.3572 144.284 32.6585C145.964 30.9601 146.905 28.6662 146.901 26.2769Z" fill="#E9E9E9"/>
<path d="M158.991 39.103V17.7749H155.525V13.3582H159.011V4.71478H163.812V13.3582H168.044V17.7749H163.812V39.103H158.991Z" fill="#E9E9E9"/>
<path d="M174.05 28.3244C175.166 32.5949 178.559 35.3444 182.513 35.3444C184.014 35.356 185.489 34.9598 186.782 34.1982C188.075 33.4366 189.137 32.3381 189.855 31.0203H194.686C193.768 33.5726 192.087 35.7804 189.871 37.3434C187.654 38.9064 185.011 39.749 182.298 39.7563C175.049 39.7563 169.175 33.3408 169.175 26.4622C169.175 18.3307 175.308 12.6562 182.142 12.6562C183.896 12.6235 185.638 12.9429 187.267 13.5956C188.895 14.2482 190.375 15.2208 191.62 16.4558C192.866 17.6908 193.851 19.1631 194.517 20.7856C195.184 22.4081 195.518 24.1477 195.5 25.9016C195.522 26.7166 195.475 27.5321 195.359 28.339H174.05V28.3244ZM190.688 24.6097C190.323 20.2222 186.462 17.0778 182.323 17.0778C178.369 17.0778 174.42 20.1929 174.035 24.6097H190.688Z" fill="#E9E9E9"/>
<path d="M20.975 20.4384C20.2685 19.7165 19.4664 19.0949 18.5911 18.5908C18.8953 18.2864 19.1771 17.9606 19.4345 17.6158C20.8776 15.6461 21.5692 13.2255 21.3845 10.7908C21.228 8.24835 20.154 5.84914 18.362 4.03889C17.3346 3.03713 16.1166 2.25173 14.7801 1.7292C13.4437 1.20668 12.0159 0.957662 10.5815 0.9969H0.5V39.7533H12.3657C16.8166 39.7533 19.5564 37.8033 21.0774 36.1507C23.0369 34.0067 24.1132 31.2012 24.0901 28.297C24.1225 25.3702 23.0038 22.548 20.975 20.4384ZM10.5815 5.51602C14.6619 5.51602 16.6752 8.31915 16.8605 11.0881C16.93 12.4712 16.4846 13.831 15.6105 14.9051C14.7363 15.9791 13.4953 16.6912 12.1269 16.904H5.01912V5.51602H10.5815ZM12.3609 35.2537H5.01912V21.4231H11.7125C17.5089 21.4231 19.5612 25.1281 19.5612 28.3019C19.5564 31.6364 17.309 35.2342 12.3609 35.2342V35.2537Z" fill="#E9E9E9"/>
<path d="M120.362 13.3777C115.789 13.0364 114.024 15.3277 114.024 15.3277V13.3777H109.212V39.103H114.044V24.6535C114.04 23.599 114.204 22.5507 114.531 21.5482C115.574 18.3892 118.997 17.3752 122.331 18.6232L124.325 14.3819C123.077 13.8043 121.734 13.4638 120.362 13.3777Z" fill="#E9E9E9"/>
<path d="M84.8716 4.71478H89.7076V39.1079H84.8716V4.71478Z" fill="#E9E9E9"/>
<path d="M100.564 39.103L89.8977 26.2184L99.4624 13.3582H104.927L95.5137 26.2184L106.263 39.103H100.564Z" fill="#E9E9E9"/>
</svg>
