<svg width="148" height="49" viewBox="0 0 148 49" fill="none" xmlns="http://www.w3.org/2000/svg">
<path d="M22.4211 21.9221H13.3948V24.4997H22.4211V34.8169H8.2369L3.07901 29.6589V2.57867H13.3948V11.605H22.4211V21.9221Z" fill="#E9E9E9"/>
<path d="M61.1052 34.8172H30.1579L25 29.6593V11.6053H35.3159V24.5001H37.8948V11.6053H48.2107V24.5001H50.7893V11.6053H61.1052V34.8172Z" fill="#E9E9E9"/>
<path d="M74 11.6053H63.6844V34.8159H74V11.6053Z" fill="#E9E9E9"/>
<path d="M74 2.57867H63.6844V9.02604H74V2.57867Z" fill="#E9E9E9"/>
<path d="M95.921 21.9221H86.8948V24.4997H95.921V34.8169H81.7369L76.5789 29.6589V2.57867H86.8948V11.605H95.921V21.9221Z" fill="#E9E9E9"/>
<path d="M119.132 21.9224H108.816V24.5001H119.132V34.8172H103.658L98.5 29.6593V16.7645L103.658 11.6053H119.132V21.9224Z" fill="#E9E9E9"/>
<path d="M144.921 34.8169H134.605V21.9221H132.026V34.8169H121.711V2.57867H132.026V11.605H139.763L144.921 16.7642V34.8169Z" fill="#E9E9E9"/>
<path d="M141.053 9.02631H134.605V0H120.448L113.938 9.02631H102.368L98.5 12.8947V9.02631H89.4738V0H61.1052V9.02631H21.1961L14.6842 0H0.5V30.9474L18.5526 49H36.6052V43.8421L41.7631 49H76.579V43.8421L81.7369 49H98.5V43.8421L103.658 49H135.895L147.5 37.3948V15.4737L141.053 9.02631ZM22.4211 21.9211H13.3947V24.5H22.4211V34.8159H8.23683L3.07895 29.6579V2.57895H13.3947V11.6053H22.4211V21.9211ZM61.1052 34.8159H30.1579L25 29.6579V11.6053H35.3159V24.5H37.8948V11.6053H48.2107V24.5H50.7893V11.6053H61.1052V34.8159ZM74 34.8159H63.6841V11.6053H74V34.8159ZM74 9.02631H63.6841V2.57895H74V9.02631ZM95.921 21.9211H86.8948V24.5H95.921V34.8159H81.7369L76.579 29.6579V2.57895H86.8948V11.6053H95.921V21.9211ZM119.132 21.9211H108.816V24.5H119.132V34.8159H103.658L98.5 29.6579V16.7632L103.658 11.6053H119.132V21.9211ZM144.921 34.8159H134.605V21.9211H132.026V34.8159H121.711V2.57895H132.026V11.6053H139.763L144.921 16.7632V34.8159Z" fill="black"/>
</svg>
