<svg width="250" height="40" viewBox="0 0 250 40" fill="none" xmlns="http://www.w3.org/2000/svg">
<path d="M228.26 27.5066C228.791 32.3872 232.135 33.7003 236.009 33.7003C238.557 33.7003 240.733 33.9919 242.577 31.3661C243.134 30.5703 244.965 29.6153 246.478 30.5569C248.176 31.6181 248.044 33.5675 247.009 34.9867C244.501 38.4217 240.613 39.2969 236.009 39.2969C228.844 39.2969 222.263 34.3369 222.263 25.9947C222.263 17.5995 226.933 11.0079 236.221 11.0079C244.727 11.0079 249.278 16.6976 249.278 25.252V25.5703C249.278 26.4456 248.681 27.5066 247.818 27.5066H228.26ZM243.718 22.5066C242.869 18.1963 240.215 16.6048 236.221 16.6048C232.135 16.6048 229.11 18.2493 228.26 22.5066H243.718ZM212.259 30.9947C212.259 32.8117 213.559 33.6472 215.576 33.6472C215.881 33.6472 216.213 33.7136 216.571 33.6472C217.845 33.4217 219.079 34.4961 219.357 35.7692C219.662 37.0558 218.906 38.3025 217.646 38.6869C216.783 38.9522 215.775 39.3103 214.488 39.2969C210.149 39.2572 206.261 36.1272 206.261 31.7906V3.01061C206.302 2.22991 206.629 1.49155 207.18 0.936314C207.73 0.381075 208.466 0.0477911 209.247 0C210.028 0.0443442 210.765 0.374372 211.318 0.927161C211.871 1.47995 212.201 2.21684 212.245 2.99736V30.9947H212.259ZM188.322 39.2969C186.601 39.3658 184.888 39.0381 183.314 38.3389C181.74 37.64 180.348 36.5881 179.246 35.2653V35.7428C179.246 37.2678 177.76 38.5014 176.234 38.5014C174.722 38.5014 173.236 37.2678 173.236 35.7428V3.01061C173.277 2.22776 173.606 1.48764 174.159 0.932095C174.712 0.376547 175.452 0.0446467 176.234 0C177.02 0.0414853 177.762 0.371992 178.318 0.92785C178.874 1.48371 179.205 2.2256 179.246 3.01061V15.3846C180.36 14.0791 181.755 13.0428 183.327 12.3536C184.899 11.6645 186.607 11.3404 188.322 11.4058C195.222 11.4058 201.246 17.0424 201.246 25.3316C201.246 33.6606 195.235 39.2969 188.322 39.2969ZM187.765 17.5066C183.731 17.5066 179.246 19.5491 179.246 25.504C179.246 31.4589 183.731 33.5014 187.765 33.5014C192.25 33.5014 195.753 30.4508 195.753 25.504C195.801 24.4419 195.628 23.3812 195.245 22.3897C194.861 21.3981 194.274 20.4974 193.523 19.7449C192.771 18.9925 191.871 18.4049 190.88 18.0195C189.888 17.6341 188.828 17.4594 187.765 17.5066ZM166.23 35.9947C166.183 36.7756 165.853 37.5125 165.3 38.0669C164.748 38.6214 164.012 38.955 163.231 39.0053C162.45 38.955 161.715 38.6214 161.162 38.0669C160.61 37.5125 160.28 36.7756 160.233 35.9947V23.3422C160.233 19.4562 157.632 17.2944 154.235 17.2944C149.923 17.2944 148.225 20.0398 148.225 25.9416V35.9947C148.178 36.7756 147.847 37.5125 147.295 38.0669C146.743 38.6214 146.007 38.955 145.226 39.0053C144.445 38.955 143.709 38.6214 143.157 38.0669C142.605 37.5125 142.274 36.7756 142.227 35.9947V23.3422C142.227 19.4562 140.131 17.0159 136.734 17.0159C132.488 17.0159 130.219 20.0398 130.219 25.9416V35.9947C130.173 36.7756 129.842 37.5125 129.29 38.0669C128.737 38.6214 128.002 38.955 127.221 39.0053C126.439 38.955 125.704 38.6214 125.152 38.0669C124.599 37.5125 124.269 36.7756 124.222 35.9947V15C124.272 14.2214 124.604 13.4878 125.156 12.9361C125.708 12.3845 126.442 12.0526 127.221 12.0026C128 12.0526 128.734 12.3845 129.285 12.9361C129.837 13.4878 130.169 14.2214 130.219 15C132.13 12.6658 134.399 11.4589 138.18 11.4589C141.935 11.4589 144.509 13.0371 146.208 16.1008C148.331 13.1432 151.409 11.5385 155.761 11.5385C161.228 11.5385 166.243 16.0079 166.243 22.2149V36.0081L166.23 35.9947ZM111.205 36.26C108.99 38.5675 107.57 39.3103 102.767 39.3103C96.3977 39.3103 92.205 35.1856 92.205 28.5411V15C92.2492 14.2195 92.5797 13.4826 93.1327 12.9298C93.6857 12.377 94.4227 12.047 95.2036 12.0026C95.9845 12.047 96.7218 12.377 97.2748 12.9298C97.8278 13.4826 98.158 14.2195 98.2024 15V27.4271C98.2024 31.7375 100.219 34.0053 104.041 34.0053C107.225 34.0053 109.826 33.4747 111.205 29.6022C111.179 29.6022 111.205 27.0159 111.205 24.8276V14.9868C111.25 14.2041 111.582 13.4654 112.138 12.9123C112.694 12.3592 113.434 12.0306 114.217 11.9894C114.998 12.0337 115.736 12.3638 116.289 12.9166C116.842 13.4693 117.172 14.2062 117.216 14.9868V36.2333C117.216 37.7586 115.743 38.9919 114.217 38.9919C112.692 38.9919 111.205 37.7586 111.205 36.2333V36.26ZM74.2793 39.3103C72.5552 39.3797 70.8383 39.0508 69.262 38.3492C67.6855 37.6478 66.2924 36.5925 65.1902 35.2653V35.7428C65.1902 37.2678 63.7176 38.5014 62.1917 38.5014C60.6657 38.5014 59.1928 37.2678 59.1928 35.7428V3.01061C59.2342 2.22776 59.563 1.48764 60.1163 0.932095C60.6696 0.376547 61.4085 0.0446467 62.1917 0C62.9745 0.0446467 63.7137 0.376547 64.267 0.932095C64.8203 1.48764 65.1491 2.22776 65.1902 3.01061V15.3846C66.3054 14.0773 67.7027 13.0399 69.277 12.3507C70.8514 11.6615 72.5618 11.3384 74.2793 11.4058C81.1787 11.4058 87.2028 17.0424 87.2028 25.3316C87.2028 33.6606 81.1787 39.2969 74.2793 39.2969V39.3103ZM73.7221 17.5066C69.675 17.5066 65.1902 19.5491 65.1902 25.504C65.1902 31.4589 69.675 33.5014 73.7221 33.5014C78.2066 33.5014 81.6965 30.4508 81.6965 25.504C81.7451 24.4431 81.5725 23.3836 81.1896 22.3929C80.8063 21.4023 80.2211 20.5023 79.471 19.75C78.721 18.9978 77.8225 18.4099 76.8326 18.0236C75.843 17.6374 74.7834 17.4613 73.7221 17.5066ZM45.46 18.5411C45.9775 19.443 45.9775 20.557 45.46 21.4589L35.5751 38.5411C35.3194 38.9836 34.952 39.3514 34.5096 39.6072C34.0672 39.8633 33.5653 39.9989 33.054 40H13.2839C12.7727 39.9989 12.2707 39.8633 11.8283 39.6072C11.3859 39.3514 11.0185 38.9836 10.7629 38.5411L0.891083 21.4589C0.63488 21.0153 0.5 20.5122 0.5 20C0.5 19.4878 0.63488 18.9847 0.891083 18.5411L10.7629 1.45889C11.0185 1.01635 11.3859 0.648675 11.8283 0.392647C12.2707 0.13662 12.7727 0.00122163 13.2839 0H33.054C34.0889 0 35.0443 0.557028 35.5751 1.45889L45.46 18.5411ZM33.1468 22.5066C34.5135 22.5066 35.6282 21.3793 35.6282 20C35.6282 18.6207 34.5135 17.5066 33.1468 17.5066H13.2043C12.5409 17.5066 11.9047 17.77 11.4357 18.2389C10.9667 18.7077 10.7032 19.3436 10.7032 20.0066C10.7032 20.6697 10.9667 21.3056 11.4357 21.7744C11.9047 22.2433 12.5409 22.5066 13.2043 22.5066H33.1334H33.1468ZM26.1941 30.9947C27.5475 30.9947 28.6489 29.8806 28.6489 28.5014C28.6489 27.122 27.5475 25.9947 26.1941 25.9947H20.1304C18.777 25.9947 17.6757 27.122 17.6757 28.5014C17.6757 29.8806 18.777 30.9947 20.1304 30.9947H26.1809H26.1941ZM17.6757 9.01856C16.3091 9.01856 15.1945 10.1326 15.1945 11.5119C15.1945 12.8913 16.3091 14.0186 17.6757 14.0186H28.662C30.0287 14.0186 31.1434 12.8913 31.1434 11.5119C31.1434 10.1326 30.0287 9.01856 28.662 9.01856H17.6757Z" fill="#E9E9E9"/>
</svg>
