<svg width="94" height="49" viewBox="0 0 94 49" fill="none" xmlns="http://www.w3.org/2000/svg">
<path d="M53.0208 19.3888C53.0208 18.227 53.0635 18.1409 51.8639 18.1409C50.4037 18.1409 50.233 18.0978 50.233 17.5384C50.233 16.892 50.7471 16.892 51.6912 16.892C52.8908 16.892 54.2641 16.85 55.291 16.7206L56.1085 16.6344C56.4068 16.6344 56.4906 16.8496 56.4906 17.1498C56.4906 17.1929 56.4068 18.7409 56.4068 19.0431C56.4068 19.9038 56.3633 20.9345 56.3633 21.8362V27.9428C56.3633 29.9213 56.3633 31.2543 56.8802 31.7697C57.1798 32.1139 57.3943 32.1139 58.3791 32.2C58.8511 32.2 58.937 32.5033 58.937 32.8025C58.937 33.3619 58.8084 33.4479 58.1225 33.4479C57.0088 33.4479 56.8381 33.4479 55.9392 33.491L53.4921 33.7921C53.1076 33.7921 52.977 33.7059 52.9349 29.8792C51.6484 31.7716 50.1047 33.9212 46.7173 33.9212C44.4019 33.9212 41.4438 32.6762 41.4438 28.331C41.4438 27.9437 41.5307 24.7634 41.5738 23.9898C41.6155 22.9571 41.7014 21.1517 41.7441 19.4324C41.7859 18.2265 41.701 18.1414 40.1563 18.1414C39.3846 18.1414 39.0426 18.1414 39.0426 17.5389C39.0426 17.0666 39.257 16.8925 39.6853 16.8925C42.2141 16.8925 42.5134 16.8074 44.4009 16.6792C44.8299 16.6349 45.0874 16.6349 45.0874 16.6349C45.3022 16.6349 45.4736 16.6792 45.4736 16.9802C45.4736 17.1504 45.345 18.5714 45.345 18.8707C45.2164 20.677 44.916 24.5909 44.916 27.7723C44.916 31.2999 45.9877 32.3737 47.7883 32.3737C50.9181 32.3737 52.507 29.2344 52.7625 27.7293C52.976 26.5274 53.0208 23.5591 53.0208 22.1831V19.3888Z" fill="#E9E9E9"/>
<path d="M66.8241 7.00703C66.8241 8.08085 66.2252 9.37176 64.7663 9.37176C63.6105 9.37176 62.7071 8.55421 62.7071 7.00703C62.7071 5.67304 63.4819 4.72734 64.7663 4.72734C66.1834 4.72635 66.8241 5.97225 66.8241 7.00703ZM66.6544 29.837C66.6544 31.7294 66.6544 32.1568 67.7682 32.2018C69.2691 32.288 69.4419 32.3308 69.4419 33.0204C69.4419 33.5348 69.2264 33.5778 68.7543 33.5778C68.3251 33.5778 66.3969 33.4489 65.4107 33.4489C64.2512 33.4489 62.2371 33.5778 61.25 33.5778C60.5214 33.5778 60.3938 33.4488 60.3938 32.9754C60.3938 32.3299 60.5655 32.2869 62.1095 32.2018C63.4815 32.1159 63.3101 31.0859 63.3101 29.6239V20.2929C63.3101 18.5296 63.3519 18.1423 62.4088 18.1423C61.251 18.1423 60.5214 18.3564 60.5214 17.5398C60.5214 17.0244 60.9506 16.8944 61.3378 16.8944C61.724 16.8944 63.1812 16.8093 64.0795 16.7223C65.2373 16.5941 66.311 16.4231 66.3959 16.4231C66.7403 16.4231 66.8241 16.7673 66.8241 17.0255C66.8241 17.3236 66.6942 18.7879 66.6942 19.3903C66.6942 19.8627 66.6544 21.0235 66.6544 21.668V29.837Z" fill="#E9E9E9"/>
<path d="M84.2407 21.8399C84.2407 19.6903 83.2566 17.2836 79.8661 17.2836C75.7074 17.2836 74.5068 21.7109 74.5068 24.8482C74.5068 28.8051 75.7505 32.3738 79.6089 32.3738C81.6677 32.3738 83.3404 31.1699 83.8124 29.7078C84.2407 28.4178 84.2407 26.5275 84.2407 25.969V21.8399ZM84.5 11.0049C84.5 10.1443 84.5851 7.3912 84.4134 6.74774C84.2848 6.27438 83.8983 6.27438 83.4683 6.27438C83.2566 6.27438 82.3563 6.31827 82.1829 6.27438C81.9273 6.23317 81.7546 6.10417 81.7546 5.71697C81.7546 5.02845 82.0529 5.02845 83.1697 4.98343C83.9404 4.94223 86.1699 4.64115 87.0722 4.46904C87.2019 4.42517 87.4564 4.38506 87.6298 4.38506C88.1022 4.38506 88.1022 4.68542 88.1022 4.89945C88.1022 5.11356 87.8867 9.80108 87.8867 10.7037C87.8867 11.8206 87.7139 17.755 87.7139 18.5716V27.6003C87.7139 31.9435 87.9298 32.0726 89.4745 32.0726C89.9893 32.0726 90.2448 32.1566 90.2448 32.7611C90.2448 33.3206 90.1169 33.3206 88.9583 33.3636C88.1022 33.4067 87.3715 33.4499 86.8574 33.5357C86.1302 33.667 85.0124 33.9231 84.9703 33.9231C84.4134 33.9231 84.3703 32.8482 84.3276 30.7857C82.9114 32.8482 80.6398 33.9231 78.1517 33.9231C74.2936 33.9231 70.5211 31.0008 70.5211 25.7099C70.5211 20.7652 73.9071 16.2078 79.0978 16.2078C81.8415 16.2078 83.3424 17.4558 84.3286 18.6156L84.5 11.0049Z" fill="#E9E9E9"/>
<path d="M46.7292 41.5796C45.5136 41.5796 44.5278 42.5684 44.5278 43.7904C44.5278 44.6782 45.0545 45.4376 45.8112 45.7898C39.2872 47.105 25.7131 40.2607 19.9485 37.86C18.4875 37.2526 17.192 36.8531 16.0313 36.6142C16.6311 36.2549 17.1691 35.8905 17.6551 35.5254C18.0064 35.5441 18.3597 35.5556 18.717 35.5556C24.5863 35.5556 29.8169 33.0207 33.1433 28.8536C35.417 26.0725 36.8789 22.4468 36.8789 17.9765C36.8789 8.46441 29.2091 0.500443 18.6601 0.500443C8.67793 0.500443 0.499207 7.78991 0.499207 18.0795C0.499207 18.437 0.520318 18.9262 0.569052 19.4956C0.59885 19.8538 0.644923 20.2121 0.696827 20.5684C0.708898 20.6455 0.719832 20.7204 0.732656 20.8006C0.855399 21.5662 1.01207 22.3218 1.23265 23.0573C1.2417 23.0876 1.24661 23.1155 1.25642 23.1473C1.28056 23.2294 1.3113 23.3084 1.33827 23.3924C2.40615 26.894 4.80937 31.0811 10.1029 33.5509C11.6667 34.3374 13.3803 34.918 15.2127 35.2463C14.56 35.6655 13.8255 36.0399 13.0091 36.3611C10.6987 36.5292 9.25455 37.6378 8.44116 39.1952C8.25354 39.5525 7.87129 40.1858 7.91419 40.3151C7.9112 40.622 8.74654 41.1706 9.06791 40.5363C10.7715 37.1509 13.8444 37.7841 16.6478 38.6028C21.7607 40.1021 28.3915 43.7335 37.7968 47.4256C45.8788 50.6017 48.203 45.8242 48.6842 44.7864C48.8399 44.4832 48.9326 44.1511 48.9326 43.7897C48.9326 42.5688 47.9468 41.5799 46.7292 41.5799V41.5796ZM5.77272 17.9762C5.77272 5.1547 12.0642 2.05237 18.6042 2.05237C25.2061 2.05237 31.6064 5.15568 31.6064 17.9762C31.6064 30.2604 25.779 33.5988 19.5094 33.8801C22.4865 30.6907 21.9665 27.7655 21.6252 27.2181C21.4765 26.976 21.3388 26.7568 21.0643 26.7748C20.8667 26.7861 20.711 26.9117 20.6532 27.074L20.6452 27.072C20.6472 27.074 20.6472 27.0833 20.6472 27.0833C20.5275 27.6677 19.8817 31.0783 17.0114 33.8323C11.1591 33.318 5.77278 29.7363 5.77278 17.9756L5.77272 17.9762Z" fill="#E9E9E9"/>
<path d="M91.9215 4.30798C92.1797 4.30798 92.4332 4.3742 92.6789 4.50698C92.9242 4.64009 93.116 4.83034 93.2548 5.07742C93.3925 5.32552 93.4604 5.58273 93.4604 5.85192C93.4604 6.11819 93.3936 6.37435 93.2578 6.61952C93.1221 6.86575 92.932 7.05586 92.6887 7.19194C92.4434 7.32696 92.1889 7.39508 91.9215 7.39508C91.6551 7.39508 91.3995 7.32696 91.1549 7.19194C90.9105 7.05576 90.7198 6.86592 90.5851 6.61952C90.4494 6.37442 90.3815 6.11812 90.3815 5.85192C90.3815 5.58263 90.4494 5.32558 90.5882 5.07742C90.7276 4.82929 90.9183 4.64006 91.1651 4.50698C91.4104 4.37383 91.6619 4.30798 91.9215 4.30798ZM91.9215 4.56329C91.705 4.56329 91.4952 4.6193 91.2896 4.73051C91.086 4.84171 90.9251 5.00052 90.8094 5.20679C90.6951 5.41409 90.636 5.62911 90.636 5.85226C90.636 6.07542 90.6937 6.2886 90.8057 6.49175C90.9197 6.69598 91.0792 6.85489 91.2838 6.96916C91.4874 7.08339 91.6999 7.13937 91.9225 7.13937C92.1451 7.13937 92.3579 7.08339 92.5622 6.96916C92.7661 6.85493 92.9236 6.69602 93.0383 6.49175C93.1499 6.28751 93.2069 6.07447 93.2069 5.85226C93.2069 5.62911 93.1499 5.41395 93.0342 5.20679C92.9202 5.00065 92.7597 4.84147 92.554 4.73051C92.3467 4.6193 92.137 4.56329 91.9215 4.56329ZM91.2458 6.70585V5.04468H91.8156C92.009 5.04468 92.1509 5.05979 92.2367 5.09079C92.3246 5.12104 92.3932 5.17477 92.4454 5.25195C92.498 5.32797 92.5231 5.40892 92.5231 5.49514C92.5231 5.61618 92.48 5.72248 92.3921 5.81252C92.3063 5.90252 92.1926 5.95357 92.0487 5.96377C92.1078 5.98647 92.1536 6.01788 92.1906 6.05191C92.2567 6.11697 92.3385 6.22705 92.4352 6.38099L92.6365 6.70626H92.3104L92.1648 6.44489C92.0487 6.23875 91.9551 6.11054 91.8852 6.05861C91.8353 6.01965 91.7633 6.00073 91.6707 6.00073H91.5139V6.70626L91.2458 6.70585ZM91.5142 5.77118H91.8387C91.9924 5.77118 92.1 5.74851 92.1553 5.70125C92.212 5.65511 92.2401 5.59304 92.2401 5.51702C92.2401 5.46785 92.2248 5.42399 92.1994 5.38503C92.1729 5.34682 92.1342 5.31803 92.0864 5.29799C92.0375 5.27907 91.949 5.27155 91.818 5.27155H91.5136V5.77288L91.5142 5.77118Z" fill="#E9E9E9"/>
</svg>
