<svg width="66" height="68" viewBox="0 0 66 68" fill="none" xmlns="http://www.w3.org/2000/svg">
<path d="M65.9929 33.9429C66.0414 35.1768 65.8402 36.4078 65.4015 37.5621C64.9627 38.7164 64.2954 39.7702 63.4395 40.6604C62.5837 41.5505 61.5569 42.2587 60.4207 42.7424C59.2845 43.2262 58.0623 43.4755 56.8275 43.4755C55.5926 43.4755 54.3704 43.2262 53.2343 42.7424C52.0981 42.2587 51.0713 41.5505 50.2154 40.6604C49.3595 39.7702 48.6922 38.7164 48.2535 37.5621C47.8147 36.4078 47.6135 35.1768 47.662 33.9429V18.5318H31.6144C29.3244 18.2914 27.2046 17.2115 25.6638 15.5005C24.123 13.7894 23.2704 11.5684 23.2704 9.26589C23.2704 6.96334 24.123 4.74236 25.6638 3.03133C27.2046 1.32029 29.3244 0.240419 31.6144 1.04193e-08L56.6648 1.04193e-08C59.1187 -0.000115994 61.4734 0.96844 63.217 2.69509C64.9606 4.42173 65.9521 6.76687 65.976 9.22062L65.9929 33.9429ZM18.5318 33.9117C18.5318 31.4543 17.5556 29.0975 15.8179 27.3598C14.0802 25.6221 11.7234 24.6458 9.26589 24.6458C6.80842 24.6458 4.45161 25.6221 2.71392 27.3598C0.976225 29.0975 0 31.4543 0 33.9117C0 36.3692 0.976225 38.726 2.71392 40.4637C4.45161 42.2014 6.80842 43.1776 9.26589 43.1776C11.7234 43.1776 14.0802 42.2014 15.8179 40.4637C17.5556 38.726 18.5318 36.3692 18.5318 33.9117ZM33.8665 24.6317H14.4463C17.7085 26.4622 19.9464 29.914 19.9464 33.9117C19.9419 35.7324 19.4709 37.5216 18.5784 39.1085C17.6859 40.6955 16.4016 42.0272 14.8481 42.9767H25.2372V58.4048C25.17 59.6126 25.347 60.8215 25.7576 61.9593C26.1683 63.0971 26.804 64.1405 27.6269 65.0271C28.4499 65.9137 29.4431 66.6253 30.5472 67.1193C31.6514 67.6134 32.8438 67.8798 34.0532 67.9027C35.2883 67.8909 36.5091 67.6358 37.6456 67.152C38.7821 66.6682 39.8121 65.9651 40.6768 65.0831C41.5415 64.2011 42.224 63.1573 42.6851 62.0114C43.1462 60.8655 43.377 59.6399 43.3644 58.4048V33.8042C43.3079 31.3327 42.2788 28.9833 40.5006 27.2659C38.7223 25.5486 36.3384 24.602 33.8665 24.6317Z" fill="#2183FF"/>
</svg>
