<svg width="66" height="53" viewBox="0 0 66 53" fill="none" xmlns="http://www.w3.org/2000/svg">
<path d="M66 0V52.8004H1.05545C0.00604486 52.8004 -0.317358 52.1107 0.342648 51.2659L15.0905 32.2974C15.2383 32.0991 15.4268 31.9348 15.6433 31.8153C15.8599 31.6958 16.0994 31.624 16.3459 31.6046C16.5925 31.5853 16.8403 31.6188 17.0728 31.703C17.3053 31.7872 17.5172 31.9201 17.6942 32.0928L22.3769 36.495C22.5458 36.6665 22.752 36.7966 22.9794 36.8751C23.2069 36.9537 23.4494 36.9786 23.6881 36.948C23.9267 36.9173 24.1551 36.8318 24.3553 36.6983C24.5554 36.5648 24.722 36.3868 24.8421 36.1782L34.8972 20.5361C35.0163 20.3287 35.1821 20.1519 35.3814 20.0198C35.5807 19.8877 35.8081 19.8039 36.0455 19.7751C36.2829 19.7463 36.5237 19.7732 36.7489 19.8537C36.9741 19.9343 37.1773 20.0662 37.3426 20.2391L44.5069 27.1559C45.2725 27.8984 46.3516 27.7499 46.8961 26.8259L63.8352 1.13521C64.383 0.204602 65.175 0 66 0Z" fill="#2183FF"/>
</svg>
