<svg width="165" height="40" viewBox="0 0 165 40" fill="none" xmlns="http://www.w3.org/2000/svg">
<path d="M11.302 5.0619L19.9827 36.795C20.566 38.9275 22.7674 40.1833 24.8989 39.5995C27.0317 39.0153 28.2863 36.8133 27.7025 34.6809L19.0203 2.94691C18.4366 0.815004 16.2356 -0.441096 14.1042 0.143286C11.9733 0.726295 10.7183 2.92908 11.302 5.0616V5.0619Z" fill="white"/>
<path d="M27.3761 4.94172L5.63844 29.4883C4.172 31.1436 4.32518 33.6744 5.9788 35.1412C7.63256 36.6074 10.1609 36.4546 11.6274 34.8L33.365 10.2539C34.8314 8.5986 34.6783 6.06857 33.0246 4.60167C31.3703 3.13386 28.8413 3.2872 27.3761 4.94157V4.94172Z" fill="white"/>
<path d="M2.74527 18.5437L33.7457 28.8006C35.8437 29.4944 38.1072 28.3555 38.801 26.2558C39.4963 24.1563 38.3573 21.892 36.2585 21.1971L5.25884 10.9411C3.16 10.2469 0.897469 11.3856 0.203192 13.4853C-0.490322 15.5849 0.648871 17.8499 2.74588 18.5437H2.74527Z" fill="white"/>
<path d="M63.664 14.376C62.88 13.9467 62.0773 13.592 61.256 13.312C60.4533 13.032 59.6973 12.892 58.988 12.892C58.1107 12.892 57.42 13.0693 56.916 13.424C56.412 13.7787 56.16 14.3107 56.16 15.02C56.16 15.5053 56.3467 15.944 56.72 16.336C57.112 16.7093 57.6067 17.0453 58.204 17.344C58.82 17.6427 59.4547 17.9133 60.108 18.156C60.9107 18.4547 61.6853 18.8373 62.432 19.304C63.1787 19.752 63.7947 20.3773 64.28 21.18C64.7653 21.964 65.008 23.0093 65.008 24.316C65.008 25.3613 64.7373 26.332 64.196 27.228C63.6547 28.124 62.8613 28.852 61.816 29.412C60.7707 29.9533 59.4827 30.224 57.952 30.224C56.776 30.224 55.572 30.0467 54.34 29.692C53.1267 29.3373 51.9787 28.7773 50.896 28.012L52.688 24.848C53.3973 25.3707 54.2093 25.8 55.124 26.136C56.0387 26.472 56.86 26.64 57.588 26.64C58.0733 26.64 58.5587 26.5747 59.044 26.444C59.548 26.2947 59.9587 26.052 60.276 25.716C60.612 25.38 60.78 24.9133 60.78 24.316C60.78 23.7 60.4813 23.168 59.884 22.72C59.3053 22.2533 58.6053 21.8613 57.784 21.544C57.1493 21.3013 56.496 21.0213 55.824 20.704C55.152 20.3867 54.5173 20.004 53.92 19.556C53.3413 19.0893 52.8653 18.52 52.492 17.848C52.1373 17.1573 51.96 16.3173 51.96 15.328C51.96 14.1333 52.2213 13.0973 52.744 12.22C53.2853 11.3427 54.0413 10.652 55.012 10.148C55.9827 9.62533 57.1027 9.336 58.372 9.28C60.0333 9.28 61.3773 9.476 62.404 9.868C63.4493 10.26 64.3827 10.7267 65.204 11.268L63.664 14.376ZM72.3162 17.764L72.5962 19.696C73.0629 18.8933 73.6602 18.268 74.3882 17.82C75.1349 17.372 76.0122 17.148 77.0202 17.148C77.9909 17.148 78.8029 17.344 79.4562 17.736C80.1282 18.128 80.5762 18.7253 80.8002 19.528C81.3042 18.8187 81.9109 18.2493 82.6202 17.82C83.3482 17.372 84.1042 17.148 84.8882 17.148C86.1016 17.148 87.0629 17.4933 87.7722 18.184C88.5002 18.856 88.8736 19.7333 88.8922 20.816V30H85.0002V22.44C84.9816 21.8987 84.8976 21.46 84.7482 21.124C84.5989 20.7693 84.2536 20.5733 83.7122 20.536C83.0776 20.536 82.5362 20.76 82.0882 21.208C81.6589 21.6373 81.3322 22.1973 81.1082 22.888C80.9029 23.56 80.8002 24.26 80.8002 24.988V30H76.8802V22.44C76.8616 21.8987 76.7589 21.46 76.5722 21.124C76.4042 20.7693 76.0496 20.5733 75.5082 20.536C74.8922 20.536 74.3696 20.76 73.9402 21.208C73.5296 21.6373 73.2122 22.188 72.9882 22.86C72.7829 23.532 72.6802 24.2227 72.6802 24.932V30H68.7602V17.764H72.3162ZM98.5041 30.336C97.3654 30.336 96.3294 30.112 95.3961 29.664C94.4814 29.1973 93.7534 28.488 93.2121 27.536C92.6708 26.584 92.4001 25.3707 92.4001 23.896C92.4001 22.5147 92.6801 21.32 93.2401 20.312C93.8001 19.304 94.5374 18.5293 95.4521 17.988C96.3668 17.428 97.3374 17.148 98.3641 17.148C99.5588 17.148 100.464 17.344 101.08 17.736C101.696 18.1093 102.209 18.5387 102.62 19.024L102.872 17.764H106.512V30H102.592V28.488C102.405 28.6747 102.125 28.9173 101.752 29.216C101.397 29.5147 100.949 29.776 100.408 30C99.8668 30.224 99.2321 30.336 98.5041 30.336ZM99.6241 27.144C100.987 27.144 101.976 26.528 102.592 25.296V22.3C102.368 21.7027 101.976 21.2267 101.416 20.872C100.875 20.5173 100.231 20.34 99.4841 20.34C98.6441 20.34 97.9161 20.6573 97.3001 21.292C96.6841 21.908 96.3761 22.7107 96.3761 23.7C96.3761 24.3533 96.5254 24.9413 96.8241 25.464C97.1228 25.9867 97.5148 26.3973 98.0001 26.696C98.5041 26.9947 99.0454 27.144 99.6241 27.144ZM114.499 17.764L114.807 20.564C115.162 19.8547 115.647 19.248 116.263 18.744C116.879 18.2213 117.486 17.8293 118.083 17.568C118.681 17.288 119.138 17.148 119.455 17.148L119.259 21.068C118.345 20.956 117.561 21.1053 116.907 21.516C116.254 21.9267 115.75 22.468 115.395 23.14C115.041 23.812 114.863 24.5027 114.863 25.212V30H110.971V17.764H114.499ZM122.12 9.392H136.008V13.312H130.996V30H126.936V13.312H122.12V9.392ZM142.933 30.336C141.44 30.336 140.17 30.056 139.125 29.496C138.098 28.936 137.314 28.1613 136.773 27.172C136.232 26.1827 135.961 25.044 135.961 23.756C135.961 22.524 136.278 21.4133 136.913 20.424C137.548 19.4347 138.397 18.6507 139.461 18.072C140.525 17.4747 141.71 17.176 143.017 17.176C144.772 17.176 146.209 17.6893 147.329 18.716C148.468 19.724 149.205 21.1893 149.541 23.112L140.581 25.968C141.178 26.6587 141.99 27.004 143.017 27.004C143.446 27.004 143.857 26.9293 144.249 26.78C144.66 26.6307 145.061 26.4347 145.453 26.192L147.189 29.104C146.536 29.4773 145.826 29.776 145.061 30C144.314 30.224 143.605 30.336 142.933 30.336ZM139.825 23.784L145.201 21.964C145.033 21.4973 144.762 21.096 144.389 20.76C144.016 20.4053 143.456 20.228 142.709 20.228C141.832 20.228 141.132 20.5267 140.609 21.124C140.086 21.7213 139.825 22.524 139.825 23.532C139.825 23.6067 139.825 23.6907 139.825 23.784ZM163.197 28.908C162.656 29.3373 161.975 29.6827 161.153 29.944C160.351 30.2053 159.557 30.336 158.773 30.336C156.683 30.336 155.003 29.7667 153.733 28.628C152.483 27.4893 151.857 25.9027 151.857 23.868C151.857 22.5053 152.165 21.348 152.781 20.396C153.397 19.4253 154.2 18.688 155.189 18.184C156.197 17.68 157.252 17.428 158.353 17.428C159.455 17.428 160.407 17.5773 161.209 17.876C162.031 18.1747 162.731 18.5667 163.309 19.052L161.405 21.572C161.144 21.3667 160.78 21.1613 160.313 20.956C159.865 20.732 159.333 20.62 158.717 20.62C157.915 20.62 157.224 20.928 156.645 21.544C156.067 22.1413 155.777 22.916 155.777 23.868C155.777 24.7827 156.076 25.5573 156.673 26.192C157.289 26.8267 158.101 27.144 159.109 27.144C159.968 27.144 160.677 26.9107 161.237 26.444L163.197 28.908Z" fill="#F9F9F9"/>
</svg>
